<?xml version="1.0" standalone="no"?>
<!DOCTYPE svg PUBLIC "-//W3C//DTD SVG 20010904//EN"
 "http://www.w3.org/TR/2001/REC-SVG-20010904/DTD/svg10.dtd">
<svg version="1.0" xmlns="http://www.w3.org/2000/svg"
 width="512.000000pt" height="512.000000pt" viewBox="0 0 512.000000 512.000000"
 preserveAspectRatio="xMidYMid meet">

<g transform="translate(0.000000,512.000000) scale(0.100000,-0.100000)"
fill="#000000" stroke="none">
<path d="M408 5023 c-57 -54 -104 -102 -105 -108 -2 -5 180 -203 403 -440
l405 -430 -410 -3 c-226 -1 -411 -6 -411 -10 0 -4 398 -452 885 -997 l884
-990 1 -872 0 -873 -425 0 -425 0 0 -150 0 -150 1000 0 1000 0 0 150 0 150
-425 0 -425 0 0 870 0 870 430 483 c237 265 436 486 443 490 7 6 35 -4 74 -26
91 -52 186 -87 293 -109 138 -29 357 -21 485 16 116 34 199 73 300 141 89 59
220 190 276 275 253 385 234 867 -49 1221 -269 337 -728 472 -1132 334 -337
-115 -603 -409 -677 -747 l-16 -78 -631 1 -631 0 -465 494 c-256 272 -484 515
-507 540 l-42 46 -103 -98z m3587 -428 c306 -82 524 -354 543 -676 16 -277
-151 -561 -403 -685 -196 -96 -456 -100 -635 -9 -28 14 -50 30 -48 34 2 5 157
181 346 392 l342 384 -524 5 -524 5 23 73 c78 245 309 445 569 492 70 12 238
4 311 -15z m-542 -877 c-11 -13 -70 -80 -133 -150 l-113 -128 -996 0 -996 0
-100 112 c-55 62 -115 130 -134 150 l-33 38 1263 0 1262 0 -20 -22z m-523
-583 c0 -11 -714 -805 -721 -803 -9 3 -719 797 -719 804 0 2 324 4 720 4 396
0 720 -2 720 -5z"/>
</g>
</svg>
